<?xml version="1.0" encoding="UTF-8" standalone="no"?>
<!-- Created with Inkscape (http://www.inkscape.org/) -->

<svg
   width="64"
   height="64"
   viewBox="0 0 16.933333 16.933333"
   version="1.1"
   id="svg1"
   inkscape:version="1.3 (0e150ed6c4, 2023-07-21)"
   sodipodi:docname="chestnut.svg"
   xmlns:inkscape="http://www.inkscape.org/namespaces/inkscape"
   xmlns:sodipodi="http://sodipodi.sourceforge.net/DTD/sodipodi-0.dtd"
   xmlns="http://www.w3.org/2000/svg"
   xmlns:svg="http://www.w3.org/2000/svg">
  <sodipodi:namedview
     id="namedview1"
     pagecolor="#505050"
     bordercolor="#eeeeee"
     borderopacity="1"
     inkscape:showpageshadow="0"
     inkscape:pageopacity="0"
     inkscape:pagecheckerboard="0"
     inkscape:deskcolor="#505050"
     inkscape:document-units="px"
     showgrid="true"
     inkscape:zoom="8.6174175"
     inkscape:cx="35.451456"
     inkscape:cy="32.666399"
     inkscape:window-width="1920"
     inkscape:window-height="1111"
     inkscape:window-x="-9"
     inkscape:window-y="-9"
     inkscape:window-maximized="1"
     inkscape:current-layer="layer1">
    <inkscape:grid
       id="grid1"
       units="px"
       originx="0"
       originy="0"
       spacingx="0.26458333"
       spacingy="0.26458333"
       empcolor="#0099e5"
       empopacity="0.30196078"
       color="#0099e5"
       opacity="0.14901961"
       empspacing="8"
       dotted="false"
       gridanglex="30"
       gridanglez="30"
       visible="true" />
  </sodipodi:namedview>
  <defs
     id="defs1" />
  <g
     inkscape:label="Livello 1"
     inkscape:groupmode="layer"
     id="layer1">
    <path
       style="fill:#954535;stroke:none;stroke-width:0.52916666;stroke-linecap:square;stroke-opacity:1;stroke-dasharray:none;fill-opacity:1"
       d="m 8.4666663,2.1166666 c 0,0 -8.83697354,5.2390766 -7.4083328,9.5249994 1.0583331,3.175 7.4083327,3.175 7.4083327,3.175 0,0 6.3499998,0 7.4083328,-3.175 C 17.30364,7.3557434 8.4666663,2.1166666 8.4666663,2.1166666 Z"
       id="path1"
       sodipodi:nodetypes="cscsc" />
    <path
       id="path1-0"
       style="fill:#cc8f70;fill-opacity:1;stroke:none;stroke-width:0.529167;stroke-linecap:square;stroke-dasharray:none;stroke-opacity:1"
       d="m 8.4666662,12.170833 c -2.2676501,0.0014 -4.438229,0.759383 -6.0254716,1.16427 2.2083667,1.480356 6.0254719,1.481563 6.0254719,1.481563 0,0 3.8230725,-0.0013 6.0306395,-1.48518 -1.590903,-0.403877 -3.763299,-1.160522 -6.0306398,-1.160653 z"
       sodipodi:nodetypes="ccccc" />
    <path
       style="fill:none;fill-opacity:1;stroke:#000000;stroke-width:0.529167;stroke-linecap:square;stroke-dasharray:none;stroke-opacity:1"
       d="m 8.4666661,2.1166665 c 0,0 -8.83697356,5.2390766 -7.4083329,9.5249995 1.0583331,3.175 7.4083329,3.175 7.4083329,3.175 0,0 6.3499999,0 7.4083329,-3.175 C 17.30364,7.3557433 8.4666661,2.1166665 8.4666661,2.1166665 Z"
       id="path1-7"
       sodipodi:nodetypes="cscsc" />
  </g>
</svg>
