<?xml version="1.0" encoding="UTF-8" standalone="no"?>
<svg
   height="128"
   width="128"
   version="1.1"
   id="svg7"
   sodipodi:docname="icon_inside.svg"
   inkscape:version="1.3 (0e150ed6c4, 2023-07-21)"
   xmlns:inkscape="http://www.inkscape.org/namespaces/inkscape"
   xmlns:sodipodi="http://sodipodi.sourceforge.net/DTD/sodipodi-0.dtd"
   xmlns="http://www.w3.org/2000/svg"
   xmlns:svg="http://www.w3.org/2000/svg">
  <defs
     id="defs7" />
  <sodipodi:namedview
     id="namedview7"
     pagecolor="#505050"
     bordercolor="#eeeeee"
     borderopacity="1"
     inkscape:showpageshadow="0"
     inkscape:pageopacity="0"
     inkscape:pagecheckerboard="0"
     inkscape:deskcolor="#505050"
     inkscape:zoom="6.6796875"
     inkscape:cx="64"
     inkscape:cy="64"
     inkscape:window-width="1920"
     inkscape:window-height="1111"
     inkscape:window-x="-9"
     inkscape:window-y="-9"
     inkscape:window-maximized="1"
     inkscape:current-layer="svg7" />
  <g
     transform="scale(.101) translate(122 122)"
     id="g7"
     style="stroke:#000000;stroke-opacity:1;stroke-width:19.8019802;stroke-dasharray:none;fill:none">
    <g
       fill="#fff"
       id="g4"
       style="stroke:#000000;stroke-opacity:1;stroke-width:19.8019802;stroke-dasharray:none;fill:none">
      <path
         fill="#478cbf"
         d="m105 673 152 14q12 1 15 14l4 67 132 10 8-61q2-11 15-15h162q13 4 15 15l8 61 132-10 4-67q3-13 15-14l152-14V427q30-39 56-81-35-59-83-108-43 20-82 47-40-37-88-64 7-51 8-102-59-28-123-42-26 43-46 89-49-7-98 0-20-46-46-89-64 14-123 42 1 51 8 102-48 27-88 64-39-27-82-47-48 49-83 108 26 42 56 81zm0 33v39c0 276 813 276 813 0v-39l-134 12-5 69q-2 10-14 13l-162 11q-12 0-16-11l-10-65H447l-10 65q-4 11-16 11l-162-11q-12-3-14-13l-5-69z"
         id="path2"
         style="stroke:#000000;stroke-opacity:1;stroke-width:19.8019802;stroke-dasharray:none;fill:none" />
    </g>
    <g
       fill="#414042"
       id="g6"
       style="stroke:#000000;stroke-opacity:1;stroke-width:19.8019802;stroke-dasharray:none;fill:none" />
  </g>
</svg>
