<?xml version="1.0" encoding="UTF-8" standalone="no"?>
<!-- Created with Inkscape (http://www.inkscape.org/) -->

<svg
   width="875.01599"
   height="77.061996"
   viewBox="0 0 231.51464 20.38932"
   version="1.1"
   id="svg1"
   sodipodi:docname="title.svg"
   inkscape:version="1.3 (0e150ed6c4, 2023-07-21)"
   inkscape:export-filename="title.png"
   inkscape:export-xdpi="96"
   inkscape:export-ydpi="96"
   xmlns:inkscape="http://www.inkscape.org/namespaces/inkscape"
   xmlns:sodipodi="http://sodipodi.sourceforge.net/DTD/sodipodi-0.dtd"
   xmlns:xlink="http://www.w3.org/1999/xlink"
   xmlns="http://www.w3.org/2000/svg"
   xmlns:svg="http://www.w3.org/2000/svg">
  <sodipodi:namedview
     id="namedview1"
     pagecolor="#505050"
     bordercolor="#eeeeee"
     borderopacity="1"
     inkscape:showpageshadow="0"
     inkscape:pageopacity="0"
     inkscape:pagecheckerboard="0"
     inkscape:deskcolor="#505050"
     inkscape:document-units="px"
     inkscape:zoom="0.76167929"
     inkscape:cx="526.4683"
     inkscape:cy="34.791546"
     inkscape:window-width="1920"
     inkscape:window-height="1111"
     inkscape:window-x="-9"
     inkscape:window-y="-9"
     inkscape:window-maximized="1"
     inkscape:current-layer="layer1" />
  <defs
     id="defs1">
    <linearGradient
       id="linearGradient3"
       inkscape:collect="always">
      <stop
         style="stop-color:#ff0000;stop-opacity:1;"
         offset="0"
         id="stop3" />
      <stop
         style="stop-color:#ffff00;stop-opacity:1;"
         offset="1"
         id="stop4" />
    </linearGradient>
    <rect
       x="0"
       y="0"
       width="936.80566"
       height="320.34479"
       id="rect2" />
    <rect
       x="0"
       y="0"
       width="793.70081"
       height="162.79819"
       id="rect1" />
    <linearGradient
       inkscape:collect="always"
       xlink:href="#linearGradient3"
       id="linearGradient4"
       x1="34.167969"
       y1="52.151817"
       x2="907.18359"
       y2="52.151817"
       gradientUnits="userSpaceOnUse" />
  </defs>
  <g
     inkscape:label="Livello 1"
     inkscape:groupmode="layer"
     id="layer1">
    <path
       d="m 54.964844,57.120567 h -4.875 v 22.078125 q 0,4.359375 -1.921875,6.421875 -1.921875,2.0625 -5.015625,2.0625 -3.328125,0 -5.15625,-2.15625 -1.828125,-2.15625 -1.828125,-6.328125 v -52.875 q 0,-4.5 2.015625,-6.515625 2.015625,-2.015625 6.515625,-2.015625 h 22.640625 q 4.6875,0 8.015625,0.421875 3.328125,0.375 6,1.59375 3.234375,1.359375 5.71875,3.890625 2.484375,2.53125 3.75,5.90625 1.3125,3.328125 1.3125,7.078125 0,7.6875 -4.359375,12.28125 -4.3125,4.59375 -13.125,6.515625 3.703125,1.96875 7.078125,5.8125 3.375,3.84375 6,8.203125 2.671875,4.3125 4.125,7.828125 1.5,3.46875 1.5,4.78125 0,1.359375 -0.890625,2.71875 -0.84375,1.3125 -2.34375,2.0625 -1.5,0.796875 -3.46875,0.796875 -2.34375,0 -3.9375,-1.125 -1.59375,-1.078125 -2.765625,-2.765625 -1.125,-1.6875 -3.09375,-4.96875 l -5.578125,-9.28125 q -3,-5.109375 -5.390625,-7.78125 -2.34375,-2.671875 -4.78125,-3.65625 -2.4375,-0.984375 -6.140625,-0.984375 z m 7.96875,-28.875 h -12.84375 v 18.890625 h 12.46875 q 5.015625,0 8.4375,-0.84375 3.421875,-0.890625 5.203125,-2.953125 1.828125,-2.109375 1.828125,-5.765625 0,-2.859375 -1.453125,-5.015625 -1.453125,-2.203125 -4.03125,-3.28125 -2.4375,-1.03125 -9.609375,-1.03125 z m 72.609376,-11.625 q 10.6875,0 18.32812,4.359375 7.6875,4.3125 11.625,12.328125 3.9375,7.96875 3.9375,18.75 0,7.96875 -2.15625,14.484375 -2.15625,6.515625 -6.46875,11.296875 -4.3125,4.78125 -10.59375,7.3125 -6.28125,2.53125 -14.39062,2.53125 -8.0625,0 -14.4375,-2.578125 -6.375,-2.625 -10.64063,-7.359375 -4.26562,-4.734375 -6.46875,-11.390625 -2.15625,-6.65625 -2.15625,-14.390625 0,-7.921875 2.25,-14.53125 2.29688,-6.609375 6.60938,-11.25 4.3125,-4.640625 10.5,-7.078125 6.1875,-2.484375 14.0625,-2.484375 z m 19.78125,35.34375 q 0,-7.546875 -2.4375,-13.078125 -2.4375,-5.53125 -6.98438,-8.34375 -4.5,-2.859375 -10.35937,-2.859375 -4.17188,0 -7.73438,1.59375 -3.51562,1.546875 -6.09375,4.546875 -2.53125,3 -4.03125,7.6875 -1.45312,4.640625 -1.45312,10.453125 0,5.859375 1.45312,10.59375 1.5,4.734375 4.17188,7.875 2.71875,3.09375 6.1875,4.640625 3.51562,1.546875 7.6875,1.546875 5.34375,0 9.79687,-2.671875 4.5,-2.671875 7.125,-8.25 2.67188,-5.578125 2.67188,-13.734375 z m 66.32812,26.765625 -3.28125,-8.625 h -27.9375 l -3.28125,8.8125 q -1.92187,5.15625 -3.28125,6.984375 -1.35937,1.78125 -4.45312,1.78125 -2.625,0 -4.64063,-1.921875 -2.01562,-1.921875 -2.01562,-4.359375 0,-1.40625 0.46875,-2.90625 0.46875,-1.5 1.54687,-4.171875 l 17.57813,-44.625 q 0.75,-1.921875 1.78125,-4.59375 1.07812,-2.71875 2.25,-4.5 1.21875,-1.78125 3.14062,-2.859375 1.96875,-1.125 4.82813,-1.125 2.90625,0 4.82812,1.125 1.96875,1.078125 3.14063,2.8125 1.21875,1.734375 2.01562,3.75 0.84375,1.96875 2.10938,5.296875 l 17.95312,44.34375 q 2.10938,5.0625 2.10938,7.359375 0,2.390625 -2.01563,4.40625 -1.96875,1.96875 -4.78125,1.96875 -1.64062,0 -2.8125,-0.609375 -1.17187,-0.5625 -1.96875,-1.546875 -0.79687,-1.03125 -1.73437,-3.09375 -0.89063,-2.109375 -1.54688,-3.703125 z m -27.5625,-19.078125 h 20.53125 L 204.26172,31.292442 Z m 104.85938,6.234375 q 0,6.234375 -3.23438,11.203125 -3.1875,4.96875 -9.375,7.78125 -6.1875,2.8125 -14.67187,2.8125 -10.17188,0 -16.78125,-3.84375 -4.6875,-2.765625 -7.64063,-7.359375 -2.90625,-4.640625 -2.90625,-9 0,-2.53125 1.73438,-4.3125 1.78125,-1.828125 4.5,-1.828125 2.20312,0 3.70312,1.40625 1.54688,1.40625 2.625,4.171875 1.3125,3.28125 2.8125,5.484375 1.54688,2.203125 4.3125,3.65625 2.76563,1.40625 7.26563,1.40625 6.1875,0 10.03125,-2.859375 3.89062,-2.90625 3.89062,-7.21875 0,-3.421875 -2.10937,-5.53125 -2.0625,-2.15625 -5.39063,-3.28125 -3.28125,-1.125 -8.8125,-2.390625 -7.40625,-1.734375 -12.42187,-4.03125 -4.96875,-2.34375 -7.92188,-6.328125 -2.90625,-4.03125 -2.90625,-9.984375 0,-5.671875 3.09375,-10.078125 3.09375,-4.40625 8.95313,-6.75 5.85937,-2.390625 13.78125,-2.390625 6.32812,0 10.92187,1.59375 4.64063,1.546875 7.6875,4.171875 3.04688,2.578125 4.45313,5.4375 1.40625,2.859375 1.40625,5.578125 0,2.484375 -1.78125,4.5 -1.73438,1.96875 -4.35938,1.96875 -2.39062,0 -3.65625,-1.171875 -1.21875,-1.21875 -2.67187,-3.9375 -1.875,-3.890625 -4.5,-6.046875 -2.625,-2.203125 -8.4375,-2.203125 -5.39063,0 -8.71875,2.390625 -3.28125,2.34375 -3.28125,5.671875 0,2.0625 1.125,3.5625 1.125,1.5 3.09375,2.578125 1.96875,1.078125 3.98437,1.6875 2.01563,0.609375 6.65625,1.78125 5.8125,1.359375 10.5,3 4.73438,1.640625 8.01563,3.984375 3.32812,2.34375 5.15625,5.953125 1.875,3.5625 1.875,8.765625 z m 56.4375,-36.609375 h -15.1875 v 49.921875 q 0,4.3125 -1.92188,6.421875 -1.92187,2.0625 -4.96875,2.0625 -3.09375,0 -5.0625,-2.109375 -1.92187,-2.109375 -1.92187,-6.375 V 29.276817 h -15.1875 q -3.5625,0 -5.29688,-1.546875 -1.73437,-1.59375 -1.73437,-4.171875 0,-2.671875 1.78125,-4.21875 1.82812,-1.546875 5.25,-1.546875 h 44.25 q 3.60937,0 5.34375,1.59375 1.78125,1.59375 1.78125,4.171875 0,2.578125 -1.78125,4.171875 -1.78125,1.546875 -5.34375,1.546875 z m 54.70312,49.921875 V 57.401817 L 393.30859,31.386192 q -2.20312,-3.515625 -3.14062,-5.484375 -0.89063,-1.96875 -0.89063,-3.421875 0,-2.390625 1.82813,-4.125 1.875,-1.734375 4.59375,-1.734375 2.85937,0 4.3125,1.640625 1.5,1.59375 4.45312,6.421875 l 12.84375,20.859375 12.98438,-20.859375 q 1.17187,-1.921875 1.96875,-3.234375 0.79687,-1.3125 1.73437,-2.4375 0.98438,-1.171875 2.15625,-1.78125 1.17188,-0.609375 2.85938,-0.609375 2.625,0 4.35937,1.734375 1.78125,1.6875 1.78125,3.9375 0,1.828125 -0.89062,3.65625 -0.89063,1.828125 -3.04688,5.0625 l -17.20312,26.390625 v 21.796875 q 0,4.265625 -1.96875,6.375 -1.96875,2.109375 -5.01563,2.109375 -3.09375,0 -5.01562,-2.0625 -1.92188,-2.109375 -1.92188,-6.421875 z m 73.64063,-62.578125 q 10.6875,0 18.32812,4.359375 7.6875,4.3125 11.625,12.328125 3.9375,7.96875 3.9375,18.75 0,7.96875 -2.15625,14.484375 -2.15625,6.515625 -6.46875,11.296875 -4.3125,4.78125 -10.59375,7.3125 -6.28125,2.53125 -14.39062,2.53125 -8.0625,0 -14.4375,-2.578125 -6.375,-2.625 -10.64063,-7.359375 -4.26562,-4.734375 -6.46875,-11.390625 -2.15625,-6.65625 -2.15625,-14.390625 0,-7.921875 2.25,-14.53125 2.29688,-6.609375 6.60938,-11.25 4.3125,-4.640625 10.5,-7.078125 6.1875,-2.484375 14.0625,-2.484375 z m 19.78125,35.34375 q 0,-7.546875 -2.4375,-13.078125 -2.4375,-5.53125 -6.98438,-8.34375 -4.5,-2.859375 -10.35937,-2.859375 -4.17188,0 -7.73438,1.59375 -3.51562,1.546875 -6.09375,4.546875 -2.53125,3 -4.03125,7.6875 -1.45312,4.640625 -1.45312,10.453125 0,5.859375 1.45312,10.59375 1.5,4.734375 4.17188,7.875 2.71875,3.09375 6.1875,4.640625 3.51562,1.546875 7.6875,1.546875 5.34375,0 9.79687,-2.671875 4.5,-2.671875 7.125,-8.25 2.67188,-5.578125 2.67188,-13.734375 z m 26.10937,6.140625 V 25.058067 q 0,-4.21875 1.875,-6.328125 1.92188,-2.109375 5.01563,-2.109375 3.23437,0 5.10937,2.109375 1.92188,2.109375 1.92188,6.328125 v 33.796875 q 0,5.765625 1.26562,9.65625 1.3125,3.84375 4.59375,6 3.28125,2.109375 9.1875,2.109375 8.15625,0 11.53125,-4.3125 3.375,-4.359375 3.375,-13.171875 V 25.058067 q 0,-4.265625 1.875,-6.328125 1.875,-2.109375 5.01563,-2.109375 3.14062,0 5.0625,2.109375 1.96875,2.0625 1.96875,6.328125 v 33.046875 q 0,8.0625 -1.59375,13.453125 -1.54688,5.390625 -5.90625,9.46875 -3.75,3.46875 -8.71875,5.0625 -4.96875,1.59375 -11.625,1.59375 -7.92188,0 -13.64063,-1.6875 -5.71875,-1.734375 -9.32812,-5.296875 -3.60938,-3.609375 -5.29688,-9.1875 -1.6875,-5.625 -1.6875,-13.40625 z m 91.54688,-0.984375 h -4.875 v 22.078125 q 0,4.359375 -1.92188,6.421875 -1.92187,2.0625 -5.01562,2.0625 -3.32813,0 -5.15625,-2.15625 -1.82813,-2.15625 -1.82813,-6.328125 v -52.875 q 0,-4.5 2.01563,-6.515625 2.01562,-2.015625 6.51562,-2.015625 h 22.64063 q 4.6875,0 8.01562,0.421875 3.32813,0.375 6,1.59375 3.23438,1.359375 5.71875,3.890625 2.48438,2.53125 3.75,5.90625 1.3125,3.328125 1.3125,7.078125 0,7.6875 -4.35937,12.28125 -4.3125,4.59375 -13.125,6.515625 3.70312,1.96875 7.07812,5.8125 3.375,3.84375 6,8.203125 2.67188,4.3125 4.125,7.828125 1.5,3.46875 1.5,4.78125 0,1.359375 -0.89062,2.71875 -0.84375,1.3125 -2.34375,2.0625 -1.5,0.796875 -3.46875,0.796875 -2.34375,0 -3.9375,-1.125 -1.59375,-1.078125 -2.76563,-2.765625 -1.125,-1.6875 -3.09375,-4.96875 l -5.57812,-9.28125 q -3,-5.109375 -5.39063,-7.78125 -2.34375,-2.671875 -4.78125,-3.65625 -2.4375,-0.984375 -6.14062,-0.984375 z m 7.96875,-28.875 h -12.84375 v 18.890625 h 12.46875 q 5.01562,0 8.4375,-0.84375 3.42187,-0.890625 5.20312,-2.953125 1.82813,-2.109375 1.82813,-5.765625 0,-2.859375 -1.45313,-5.015625 -1.45312,-2.203125 -4.03125,-3.28125 -2.4375,-1.03125 -9.60937,-1.03125 z m 94.59375,37.640625 q 0,6.234375 -3.23438,11.203125 -3.1875,4.96875 -9.375,7.78125 -6.1875,2.8125 -14.67187,2.8125 -10.17188,0 -16.78125,-3.84375 -4.6875,-2.765625 -7.64063,-7.359375 -2.90625,-4.640625 -2.90625,-9 0,-2.53125 1.73438,-4.3125 1.78125,-1.828125 4.5,-1.828125 2.20312,0 3.70312,1.40625 1.54688,1.40625 2.625,4.171875 1.3125,3.28125 2.8125,5.484375 1.54688,2.203125 4.3125,3.65625 2.76563,1.40625 7.26563,1.40625 6.1875,0 10.03125,-2.859375 3.89062,-2.90625 3.89062,-7.21875 0,-3.421875 -2.10937,-5.53125 -2.0625,-2.15625 -5.39063,-3.28125 -3.28125,-1.125 -8.8125,-2.390625 -7.40625,-1.734375 -12.42187,-4.03125 -4.96875,-2.34375 -7.92188,-6.328125 -2.90625,-4.03125 -2.90625,-9.984375 0,-5.671875 3.09375,-10.078125 3.09375,-4.40625 8.95313,-6.75 5.85937,-2.390625 13.78125,-2.390625 6.32812,0 10.92187,1.59375 4.64063,1.546875 7.6875,4.171875 3.04688,2.578125 4.45313,5.4375 1.40625,2.859375 1.40625,5.578125 0,2.484375 -1.78125,4.5 -1.73438,1.96875 -4.35938,1.96875 -2.39062,0 -3.65625,-1.171875 -1.21875,-1.21875 -2.67187,-3.9375 -1.875,-3.890625 -4.5,-6.046875 -2.625,-2.203125 -8.4375,-2.203125 -5.39063,0 -8.71875,2.390625 -3.28125,2.34375 -3.28125,5.671875 0,2.0625 1.125,3.5625 1.125,1.5 3.09375,2.578125 1.96875,1.078125 3.98437,1.6875 2.01563,0.609375 6.65625,1.78125 5.8125,1.359375 10.5,3 4.73438,1.640625 8.01563,3.984375 3.32812,2.34375 5.15625,5.953125 1.875,3.5625 1.875,8.765625 z m 57.09375,-37.359375 h -31.35938 v 16.875 h 28.875 q 3.1875,0 4.73438,1.453125 1.59375,1.40625 1.59375,3.75 0,2.34375 -1.54688,3.84375 -1.54687,1.453125 -4.78125,1.453125 h -28.875 v 19.546875 h 32.4375 q 3.28125,0 4.92188,1.546875 1.6875,1.5 1.6875,4.03125 0,2.4375 -1.6875,3.984375 -1.64063,1.5 -4.92188,1.5 h -37.82812 q -4.54688,0 -6.5625,-2.015625 -1.96875,-2.015625 -1.96875,-6.515625 v -51.65625 q 0,-3 0.89062,-4.875 0.89063,-1.921875 2.76563,-2.765625 1.92187,-0.890625 4.875,-0.890625 h 36.75 q 3.32812,0 4.92187,1.5 1.64063,1.453125 1.64063,3.84375 0,2.4375 -1.64063,3.9375 -1.59375,1.453125 -4.92187,1.453125 z m 32.39062,-3.46875 v 50.015625 h 28.21875 q 3.375,0 5.15625,1.640625 1.82813,1.640625 1.82813,4.125 0,2.53125 -1.78125,4.125 -1.78125,1.546875 -5.20313,1.546875 h -33.60937 q -4.54688,0 -6.5625,-2.015625 -1.96875,-2.015625 -1.96875,-6.515625 V 25.058067 q 0,-4.21875 1.875,-6.328125 1.92187,-2.109375 5.01562,-2.109375 3.14063,0 5.0625,2.109375 1.96875,2.0625 1.96875,6.328125 z m 85.40625,3.46875 h -27.42187 v 17.578125 h 22.92187 q 3.1875,0 4.73438,1.453125 1.59375,1.40625 1.59375,3.796875 0,2.390625 -1.59375,3.796875 -1.59375,1.40625 -4.73438,1.40625 h -22.92187 v 22.640625 q 0,4.3125 -1.96875,6.421875 -1.92188,2.0625 -4.96875,2.0625 -3.09375,0 -5.0625,-2.109375 -1.92188,-2.109375 -1.92188,-6.375 v -52.875 q 0,-3 0.89063,-4.875 0.89062,-1.921875 2.76562,-2.765625 1.92188,-0.890625 4.875,-0.890625 h 32.8125 q 3.32813,0 4.92188,1.5 1.64062,1.453125 1.64062,3.84375 0,2.4375 -1.64062,3.9375 -1.59375,1.453125 -4.92188,1.453125 z"
       id="text1"
       style="font-size:96px;font-family:'Arial Rounded MT Bold';-inkscape-font-specification:'Arial Rounded MT Bold, ';text-align:center;text-anchor:middle;white-space:pre;stroke:#000000;stroke-width:4;stroke-linecap:square;fill:url(#linearGradient4);fill-opacity:1"
       transform="matrix(0.26458333,0,0,0.26458333,-8.7756916,-3.603775)"
       aria-label="ROAST YOURSELF" />
  </g>
</svg>
